<svg width="38" height="38" viewBox="0 0 38 38" fill="none" xmlns="http://www.w3.org/2000/svg">
<path d="M2.375 19C2.375 11.1635 2.375 7.2435 4.80925 4.80925C7.2435 2.375 11.1617 2.375 19 2.375C26.8365 2.375 30.7565 2.375 33.1907 4.80925C35.625 7.2435 35.625 11.1617 35.625 19C35.625 26.8365 35.625 30.7565 33.1907 33.1907C30.7565 35.625 26.8383 35.625 19 35.625C11.1635 35.625 7.2435 35.625 4.80925 33.1907C2.375 30.7565 2.375 26.8383 2.375 19Z" stroke="#97AFE3" stroke-width="4" stroke-linecap="round" stroke-linejoin="round"/>
<path d="M26 19H12M26 19C26 17.775 22.5105 15.486 21.625 14.625M26 19C26 20.225 22.5105 22.514 21.625 23.375" stroke="#97AFE3" stroke-width="4" stroke-linecap="round" stroke-linejoin="round"/>
</svg>
